<svg width="111" height="138" viewBox="0 0 111 138" fill="none" xmlns="http://www.w3.org/2000/svg">
<path d="M75.1359 19.9024L58.0938 2.8635C56.2656 1.03574 53.7875 0 51.2078 0H9.75C4.36719 0.0203085 0 4.38664 0 9.7684V94.2519C0 99.6337 4.36719 104 9.75 104H68.25C73.6328 104 78 99.6337 78 94.2519V26.8073C78 24.2281 76.9641 21.7301 75.1359 19.9024ZM67.4578 26.0152H52V10.5604L67.4578 26.0152ZM9.75 94.2519V9.7684H42.25V30.8893C42.25 33.5903 44.4234 35.7633 47.125 35.7633H68.25V94.2519H9.75Z" fill="#4CC9FF"/>
<path d="M111 129.091C111 129.378 111 129.378 111 129.665C111 129.953 110.718 130.24 110.718 130.815C110.435 131.677 109.871 132.539 109.024 133.114C108.176 133.976 107.329 134.839 106.482 135.701C105.918 136.276 105.353 136.85 104.788 137.138C104.224 137.425 103.659 137.713 103.094 137.713C102.529 137.713 101.965 137.713 101.4 137.138C97.7294 133.114 93.7765 129.378 90.1059 125.354C88.4118 123.63 86.7176 121.906 85.0235 120.181L84.7412 119.894C84.7412 119.894 84.4588 119.894 84.4588 120.181C80.7882 122.768 76.5529 124.205 72.0353 124.78C70.3412 125.067 68.3647 125.067 66.6706 125.067C64.9765 125.067 63 124.78 61.3059 124.205C54.8118 122.48 49.4471 119.031 45.4941 113.858C41.8235 109.26 39.8471 104.087 39.2824 98.626C39 96.9016 39 95.1772 39 93.7402C39 92.0157 39.2824 90.2913 39.5647 88.2795C40.6941 83.1063 42.9529 78.5079 46.3412 74.7717C52.2706 68.7362 59.0471 65.5748 67.2353 65H67.5176C68.3647 65 68.9294 65 69.7765 65H70.0588C70.3412 65 70.6235 65 71.1882 65C73.1647 65.2874 74.8588 65.5748 76.8353 66.1496C88.6941 69.5984 97.4471 79.9449 98.2941 92.878C98.5765 95.1772 98.2941 97.7638 98.0118 100.063C97.4471 103.799 96.0353 107.248 94.3412 110.409C94.3412 110.409 94.3412 110.697 94.0588 110.697C94.0588 110.697 94.3412 110.697 94.3412 110.984C95.4706 112.134 96.6 113.283 97.7294 114.433C102.247 119.031 106.765 123.63 111 127.941C111 128.228 111 128.516 111 129.091C111 129.091 111 128.803 111 129.091ZM68.6471 115.295C79.3765 115.295 88.4118 106.386 88.4118 95.1772C88.4118 83.9685 79.6588 75.0591 68.6471 75.0591C57.6353 75.0591 48.8824 83.9685 48.8824 95.1772C48.8824 106.098 57.6353 115.295 68.6471 115.295Z" fill="#4CC9FF"/>
</svg>
