<svg width="26" height="26" viewBox="0 0 26 26" fill="none" xmlns="http://www.w3.org/2000/svg">
<path d="M4.0625 11.375C4.0625 7.3125 7.3125 4.0625 11.375 4.0625C15.4375 4.0625 18.6875 7.3125 18.6875 11.375C18.6875 15.4375 15.4375 18.6875 11.375 18.6875C7.3125 18.6875 4.0625 15.4375 4.0625 11.375ZM25.35 22.5875L20.8 17.875C21.9375 16.0875 22.75 13.8125 22.75 11.375C22.75 5.0375 17.7125 0 11.375 0C5.0375 0 0 5.0375 0 11.375C0 17.7125 5.0375 22.75 11.375 22.75C13.8125 22.75 16.0875 21.9375 17.875 20.8L22.5875 25.35C22.9125 25.8375 23.4 26 24.05 26C24.5375 26 25.025 25.8375 25.35 25.35C26.1625 24.5375 26.1625 23.4 25.35 22.5875Z" fill="#484848"/>
</svg>
